<?xml version="1.0" encoding="iso-8859-1"?>
<!-- Uploaded to: SVG Repo, www.svgrepo.com, Generator: SVG Repo Mixer Tools -->
<svg fill="#000000" height="800px" width="800px" version="1.1" id="Layer_1" xmlns="http://www.w3.org/2000/svg" xmlns:xlink="http://www.w3.org/1999/xlink" 
	 viewBox="0 0 512 512" xml:space="preserve">
<g>
	<g>
		<path d="M501.801,106.357H10.199C4.567,106.357,0,110.923,0,116.556v278.888c0,5.633,4.567,10.199,10.199,10.199h491.602
			c5.632,0,10.199-4.566,10.199-10.199V116.556C512,110.923,507.433,106.357,501.801,106.357z M491.602,385.246H20.398V126.755
			h471.203V385.246z"/>
	</g>
</g>
<g>
	<g>
		<path d="M445.027,313.401H311.004c-5.632,0-10.199,4.566-10.199,10.199s4.566,10.199,10.199,10.199h134.023
			c5.632,0,10.199-4.566,10.199-10.199S450.659,313.401,445.027,313.401z"/>
	</g>
</g>
<g>
	<g>
		<path d="M445.027,247.913H311.004c-5.632,0-10.199,4.566-10.199,10.199c0,5.633,4.566,10.199,10.199,10.199h134.023
			c5.632,0,10.199-4.566,10.199-10.199C455.226,252.479,450.659,247.913,445.027,247.913z"/>
	</g>
</g>
<g>
	<g>
		<path d="M445.578,182.423h-8.032c-5.632,0-10.199,4.566-10.199,10.199c0,5.633,4.567,10.199,10.199,10.199h8.032
			c5.632,0,10.199-4.566,10.199-10.199C455.777,186.99,451.21,182.423,445.578,182.423z"/>
	</g>
</g>
<g>
	<g>
		<path d="M398.789,182.423h-87.785c-5.632,0-10.199,4.566-10.199,10.199c0,5.633,4.566,10.199,10.199,10.199h87.785
			c5.632,0,10.199-4.566,10.199-10.199C408.988,186.99,404.421,182.423,398.789,182.423z"/>
	</g>
</g>
<g>
	<g>
		<path d="M160.989,266.054c-56.43,0-102.34,37.712-102.34,84.064c0,5.633,4.566,10.199,10.199,10.199h184.282
			c5.632,0,10.199-4.566,10.199-10.199C263.33,303.764,217.421,266.054,160.989,266.054z M80.098,339.92
			c5.726-27.511,34.223-49.17,69.931-52.895v22.735c0,5.633,4.567,10.199,10.199,10.199s10.199-4.566,10.199-10.199v-22.871
			c36.415,3.262,65.647,25.131,71.454,53.031H80.098z"/>
	</g>
</g>
<g>
	<g>
		<path d="M160.128,150.072c-29.244,0-53.036,23.792-53.036,53.036s23.792,53.036,53.036,53.036s53.036-23.792,53.036-53.036
			S189.372,150.072,160.128,150.072z M160.128,235.745c-17.997,0-32.637-14.641-32.637-32.637s14.641-32.637,32.637-32.637
			s32.637,14.641,32.637,32.637S178.124,235.745,160.128,235.745z"/>
	</g>
</g>
</svg>